<svg width="25" height="24" viewBox="0 0 25 24" fill="none" xmlns="http://www.w3.org/2000/svg">
<path d="M15.5 22.75H9.5C4.07 22.75 1.75 20.43 1.75 15V9C1.75 3.57 4.07 1.25 9.5 1.25H11.5C11.91 1.25 12.25 1.59 12.25 2C12.25 2.41 11.91 2.75 11.5 2.75H9.5C4.89 2.75 3.25 4.39 3.25 9V15C3.25 19.61 4.89 21.25 9.5 21.25H15.5C20.11 21.25 21.75 19.61 21.75 15V13C21.75 12.59 22.09 12.25 22.5 12.25C22.91 12.25 23.25 12.59 23.25 13V15C23.25 20.43 20.93 22.75 15.5 22.75Z" fill="#0C0C0C"/>
<path d="M8.99984 17.69C8.38984 17.69 7.82984 17.47 7.41984 17.07C6.92984 16.58 6.71984 15.87 6.82984 15.12L7.25984 12.11C7.33984 11.53 7.71984 10.78 8.12984 10.37L16.0098 2.49C17.9998 0.499998 20.0198 0.499998 22.0098 2.49C23.0998 3.58 23.5898 4.69 23.4898 5.8C23.3998 6.7 22.9198 7.58 22.0098 8.48L14.1298 16.36C13.7198 16.77 12.9698 17.15 12.3898 17.23L9.37984 17.66C9.24984 17.69 9.11984 17.69 8.99984 17.69ZM17.0698 3.55L9.18984 11.43C8.99984 11.62 8.77984 12.06 8.73984 12.32L8.30984 15.33C8.26984 15.62 8.32984 15.86 8.47984 16.01C8.62984 16.16 8.86984 16.22 9.15984 16.18L12.1698 15.75C12.4298 15.71 12.8798 15.49 13.0598 15.3L20.9398 7.42C21.5898 6.77 21.9298 6.19 21.9798 5.65C22.0398 5 21.6998 4.31 20.9398 3.54C19.3398 1.94 18.2398 2.39 17.0698 3.55Z" fill="#0C0C0C"/>
<path d="M20.3501 9.83003C20.2801 9.83003 20.2101 9.82003 20.1501 9.80003C17.5201 9.06003 15.4301 6.97003 14.6901 4.34003C14.5801 3.94003 14.8101 3.53003 15.2101 3.41003C15.6101 3.30003 16.0201 3.53003 16.1301 3.93003C16.7301 6.06003 18.4201 7.75003 20.5501 8.35003C20.9501 8.46003 21.1801 8.88003 21.0701 9.28003C20.9801 9.62003 20.6801 9.83003 20.3501 9.83003Z" fill="#0C0C0C"/>
</svg>
