<svg width="25" height="24" viewBox="0 0 25 24" fill="none" xmlns="http://www.w3.org/2000/svg">
<path d="M16.7799 22.1H12.9799C12.4199 22.1 11.1999 21.93 10.5499 21.28L7.51986 18.94L8.43986 17.75L11.5399 20.15C11.7899 20.39 12.4199 20.59 12.9799 20.59H16.7799C17.6799 20.59 18.6499 19.87 18.8499 19.06L21.2699 11.71C21.4299 11.27 21.3999 10.87 21.1899 10.58C20.9699 10.27 20.5699 10.09 20.0799 10.09H16.0799C15.5599 10.09 15.0799 9.86999 14.7499 9.48999C14.4099 9.09999 14.2599 8.57999 14.3399 8.03999L14.8399 4.82999C14.9599 4.26999 14.5799 3.63999 14.0399 3.45999C13.5499 3.27999 12.9199 3.53999 12.6999 3.85999L8.59986 9.95999L7.35986 9.12999L11.4599 3.02999C12.0899 2.08999 13.4699 1.63999 14.5499 2.04999C15.7999 2.45999 16.5999 3.83999 16.3199 5.11999L15.8299 8.26999C15.8199 8.33999 15.8199 8.43999 15.8899 8.51999C15.9399 8.56999 16.0099 8.59999 16.0899 8.59999H20.0899C21.0699 8.59999 21.9199 9.00999 22.4199 9.71999C22.9099 10.41 23.0099 11.32 22.6899 12.2L20.2999 19.48C19.9299 20.93 18.3899 22.1 16.7799 22.1Z" fill="#0C0C0C"/>
<path d="M5.87988 21H4.87988C3.02988 21 2.12988 20.13 2.12988 18.35V8.55002C2.12988 6.77002 3.02988 5.90002 4.87988 5.90002H5.87988C7.72988 5.90002 8.62988 6.77002 8.62988 8.55002V18.35C8.62988 20.13 7.72988 21 5.87988 21ZM4.87988 7.40002C3.78988 7.40002 3.62988 7.66002 3.62988 8.55002V18.35C3.62988 19.24 3.78988 19.5 4.87988 19.5H5.87988C6.96988 19.5 7.12988 19.24 7.12988 18.35V8.55002C7.12988 7.66002 6.96988 7.40002 5.87988 7.40002H4.87988Z" fill="#0C0C0C"/>
</svg>
