<svg width="50" height="156" viewBox="0 0 50 156" fill="none" xmlns="http://www.w3.org/2000/svg">
<path d="M46.2038 62.4953C44.3629 63.6224 42.8379 65.1982 41.7718 67.0752C40.7056 68.9521 40.1331 71.0689 40.1078 73.2273C40.1151 75.6567 40.8348 78.0305 42.1779 80.0548C43.521 82.0792 45.4284 83.665 47.6639 84.616C46.7825 87.4598 45.4781 90.1546 43.7945 92.61C41.3855 96.0779 38.8666 99.5455 35.0339 99.5455C31.2013 99.5455 30.2155 97.3188 25.7987 97.3188C21.4914 97.3188 19.9582 99.6186 16.4539 99.6186C12.9496 99.6186 10.5042 96.4063 7.69331 92.4641C3.98037 86.9414 1.93979 80.4648 1.81641 73.8112C1.81641 62.8604 8.93457 57.0567 15.9428 57.0567C19.6662 57.0567 22.769 59.5021 25.1052 59.5021C27.3319 59.5021 30.7998 56.9104 35.0339 56.9104C37.2109 56.8542 39.3684 57.3342 41.3162 58.3081C43.2641 59.282 44.9426 60.72 46.2038 62.4953ZM33.0264 52.2747C34.8929 50.079 35.9495 47.3094 36.0196 44.4285C36.0228 44.0487 35.9861 43.6696 35.9101 43.2975C32.7039 43.6107 29.7391 45.1388 27.6238 47.5684C25.7393 49.6766 24.643 52.3722 24.521 55.1973C24.5224 55.5408 24.5591 55.8833 24.6306 56.2194C24.8833 56.2672 25.1399 56.2917 25.3972 56.2925C26.8748 56.175 28.3131 55.7582 29.6246 55.0675C30.9361 54.3768 32.0935 53.4266 33.0264 52.2747Z" fill="#0C0C0C"/>
</svg>
