<svg width="20" height="21" viewBox="0 0 20 21" fill="none" xmlns="http://www.w3.org/2000/svg">
<path d="M14.541 19.4583C13.5993 19.4583 12.6077 19.2333 11.5827 18.8C10.5827 18.375 9.57435 17.7916 8.59102 17.0833C7.61602 16.3666 6.67435 15.5666 5.78268 14.6916C4.89935 13.8 4.09935 12.8583 3.39102 11.8916C2.67435 10.8916 2.09935 9.89163 1.69102 8.92496C1.25768 7.89163 1.04102 6.89163 1.04102 5.94996C1.04102 5.29996 1.15768 4.68329 1.38268 4.10829C1.61602 3.51663 1.99102 2.96663 2.49935 2.49163C3.14102 1.85829 3.87435 1.54163 4.65768 1.54163C4.98268 1.54163 5.31602 1.61663 5.59935 1.74996C5.92435 1.89996 6.19935 2.12496 6.39935 2.42496L8.33268 5.14996C8.50768 5.39163 8.64101 5.62496 8.73268 5.85829C8.84101 6.10829 8.89935 6.35829 8.89935 6.59996C8.89935 6.91663 8.80768 7.22496 8.63268 7.51663C8.50768 7.74163 8.31601 7.98329 8.07435 8.22496L7.50768 8.81663C7.51602 8.84163 7.52435 8.85829 7.53268 8.87496C7.63268 9.04996 7.83268 9.34996 8.21601 9.79996C8.62435 10.2666 9.00768 10.6916 9.39102 11.0833C9.88268 11.5666 10.291 11.95 10.6743 12.2666C11.1493 12.6666 11.4577 12.8666 11.641 12.9583L11.6243 13L12.2327 12.4C12.491 12.1416 12.741 11.95 12.9827 11.825C13.441 11.5416 14.0243 11.4916 14.6077 11.7333C14.8243 11.825 15.0577 11.95 15.3077 12.125L18.0743 14.0916C18.3827 14.3 18.6077 14.5666 18.741 14.8833C18.866 15.2 18.9243 15.4916 18.9243 15.7833C18.9243 16.1833 18.8327 16.5833 18.6577 16.9583C18.4827 17.3333 18.266 17.6583 17.991 17.9583C17.516 18.4833 16.9993 18.8583 16.3993 19.1C15.8243 19.3333 15.1993 19.4583 14.541 19.4583ZM4.65768 2.79163C4.19935 2.79163 3.77435 2.99163 3.36602 3.39163C2.98268 3.74996 2.71602 4.14163 2.54935 4.56663C2.37435 4.99996 2.29102 5.45829 2.29102 5.94996C2.29102 6.72496 2.47435 7.56663 2.84102 8.43329C3.21602 9.31663 3.74102 10.2333 4.40768 11.15C5.07435 12.0666 5.83268 12.9583 6.66602 13.8C7.49935 14.625 8.39935 15.3916 9.32435 16.0666C10.2243 16.725 11.1493 17.2583 12.066 17.6416C13.491 18.25 14.8243 18.3916 15.9243 17.9333C16.3493 17.7583 16.7243 17.4916 17.066 17.1083C17.2577 16.9 17.4077 16.675 17.5327 16.4083C17.6327 16.2 17.6827 15.9833 17.6827 15.7666C17.6827 15.6333 17.6577 15.5 17.591 15.35C17.566 15.3 17.516 15.2083 17.3577 15.1L14.591 13.1333C14.4243 13.0166 14.2743 12.9333 14.1327 12.875C13.9493 12.8 13.8743 12.725 13.591 12.9C13.4243 12.9833 13.2743 13.1083 13.1077 13.275L12.4743 13.9C12.1493 14.2166 11.6493 14.2916 11.266 14.15L11.041 14.05C10.6993 13.8666 10.2993 13.5833 9.85768 13.2083C9.45768 12.8666 9.02435 12.4666 8.49935 11.95C8.09101 11.5333 7.68268 11.0916 7.25768 10.6C6.86602 10.1416 6.58268 9.74996 6.40768 9.42496L6.30768 9.17496C6.25768 8.98329 6.24101 8.87496 6.24101 8.75829C6.24101 8.45829 6.34935 8.19163 6.55768 7.98329L7.18268 7.33329C7.34935 7.16663 7.47435 7.00829 7.55768 6.86663C7.62435 6.75829 7.64935 6.66663 7.64935 6.58329C7.64935 6.51663 7.62435 6.41663 7.58268 6.31663C7.52435 6.18329 7.43268 6.03329 7.31601 5.87496L5.38268 3.14163C5.29935 3.02496 5.19935 2.94163 5.07435 2.88329C4.94102 2.82496 4.79935 2.79163 4.65768 2.79163ZM11.6243 13.0083L11.491 13.575L11.716 12.9916C11.6743 12.9833 11.641 12.9916 11.6243 13.0083Z" fill="#CBCBCB"/>
<path d="M15.4167 8.62504C15.075 8.62504 14.7917 8.34171 14.7917 8.00004C14.7917 7.70004 14.4917 7.07504 13.9917 6.54171C13.5 6.01671 12.9583 5.70837 12.5 5.70837C12.1583 5.70837 11.875 5.42504 11.875 5.08337C11.875 4.74171 12.1583 4.45837 12.5 4.45837C13.3083 4.45837 14.1583 4.89171 14.9 5.68337C15.5917 6.42504 16.0417 7.33337 16.0417 8.00004C16.0417 8.34171 15.7583 8.62504 15.4167 8.62504Z" fill="#CBCBCB"/>
<path d="M18.3333 8.62496C17.9917 8.62496 17.7083 8.34163 17.7083 7.99996C17.7083 5.12496 15.375 2.79163 12.5 2.79163C12.1583 2.79163 11.875 2.50829 11.875 2.16663C11.875 1.82496 12.1583 1.54163 12.5 1.54163C16.0583 1.54163 18.9583 4.44163 18.9583 7.99996C18.9583 8.34163 18.675 8.62496 18.3333 8.62496Z" fill="#CBCBCB"/>
</svg>
