<svg width="32" height="32" viewBox="0 0 32 32" fill="none" xmlns="http://www.w3.org/2000/svg">
<path fill-rule="evenodd" clip-rule="evenodd" d="M23.9993 5.33329H7.99935C6.52659 5.33329 5.33268 6.5272 5.33268 7.99996V24C5.33268 25.4728 6.52659 26.6666 7.99935 26.6666H23.9993C25.4721 26.6666 26.666 25.4728 26.666 24V7.99996C26.666 6.5272 25.4721 5.33329 23.9993 5.33329ZM7.99935 2.66663C5.05383 2.66663 2.66602 5.05444 2.66602 7.99996V24C2.66602 26.9454 5.05383 29.3333 7.99935 29.3333H23.9993C26.9448 29.3333 29.3327 26.9454 29.3327 24V7.99996C29.3327 5.05444 26.9448 2.66663 23.9993 2.66663H7.99935Z" fill="white"/>
<path fill-rule="evenodd" clip-rule="evenodd" d="M15.8896 13.3334C15.8896 11.1242 17.6804 9.33337 19.8896 9.33337H22.6673V12H19.8896C19.1532 12 18.5563 12.597 18.5563 13.3334V16H22.6673V18.6667H18.5563V26.6667H15.8896V18.6667H13.334V16H15.8896V13.3334Z" fill="white"/>
</svg>
