<svg width="20" height="20" viewBox="0 0 20 20" fill="none" xmlns="http://www.w3.org/2000/svg">
<path d="M9.99935 17.7083H5.83268C2.79102 17.7083 1.04102 15.9583 1.04102 12.9166V7.08329C1.04102 4.04163 2.79102 2.29163 5.83268 2.29163H14.166C17.2077 2.29163 18.9577 4.04163 18.9577 7.08329V9.58329C18.9577 9.92496 18.6743 10.2083 18.3327 10.2083C17.991 10.2083 17.7077 9.92496 17.7077 9.58329V7.08329C17.7077 4.69996 16.5493 3.54163 14.166 3.54163H5.83268C3.44935 3.54163 2.29102 4.69996 2.29102 7.08329V12.9166C2.29102 15.3 3.44935 16.4583 5.83268 16.4583H9.99935C10.341 16.4583 10.6243 16.7416 10.6243 17.0833C10.6243 17.425 10.341 17.7083 9.99935 17.7083Z" fill="#CBCBCB"/>
<path d="M9.999 10.725C9.299 10.725 8.59067 10.5083 8.049 10.0666L5.44067 7.9833C5.174 7.76663 5.124 7.37497 5.34067 7.10831C5.55734 6.84164 5.94899 6.79998 6.21566 7.00831L8.824 9.09164C9.45733 9.59998 10.5323 9.59998 11.1657 9.09164L13.774 7.00831C14.0407 6.79164 14.4323 6.83331 14.649 7.10831C14.8657 7.37497 14.824 7.77496 14.549 7.9833L11.9407 10.0666C11.4073 10.5083 10.699 10.725 9.999 10.725Z" fill="#CBCBCB"/>
<path d="M13.1843 18.15C12.8676 18.15 12.5676 18.0333 12.3509 17.8166C12.0926 17.5583 11.9759 17.1833 12.0343 16.7916L12.1926 15.6666C12.2343 15.375 12.4093 15.025 12.6176 14.8166L15.5676 11.8666C15.9676 11.4666 16.3593 11.2583 16.7843 11.2166C17.3009 11.1666 17.8176 11.3833 18.3009 11.8666C18.7843 12.35 19.0009 12.8583 18.9509 13.3833C18.9093 13.8 18.6926 14.2 18.3009 14.6L15.3509 17.55C15.1426 17.7583 14.7926 17.9333 14.5009 17.975L13.3759 18.1333C13.3093 18.1416 13.2509 18.15 13.1843 18.15ZM16.9259 12.4583C16.9176 12.4583 16.9093 12.4583 16.9009 12.4583C16.7843 12.4666 16.6259 12.575 16.4509 12.75L13.5009 15.7C13.4759 15.725 13.4343 15.8083 13.4343 15.8416L13.2843 16.8833L14.3259 16.7333C14.3593 16.725 14.4426 16.6833 14.4676 16.6583L17.4176 13.7083C17.5926 13.525 17.7009 13.375 17.7093 13.2583C17.7259 13.0916 17.5593 12.8916 17.4176 12.75C17.2843 12.6166 17.0926 12.4583 16.9259 12.4583Z" fill="#CBCBCB"/>
<path d="M17.4338 15.2083C17.3755 15.2083 17.3171 15.1999 17.2671 15.1833C16.1671 14.8749 15.2922 14 14.9838 12.9C14.8922 12.5666 15.0838 12.2249 15.4171 12.1249C15.7505 12.0333 16.0922 12.2249 16.1838 12.5583C16.3755 13.2416 16.9171 13.7833 17.6005 13.9749C17.9338 14.0666 18.1255 14.4166 18.0338 14.75C17.9588 15.025 17.7088 15.2083 17.4338 15.2083Z" fill="#CBCBCB"/>
</svg>
