<svg width="444" height="420" viewBox="0 0 444 420" fill="none" xmlns="http://www.w3.org/2000/svg">
<g clip-path="url(#clip0_1_2539)">
<rect width="444" height="420" rx="8" fill="#005690"/>
<path d="M110 0C110 13.3948 107.142 26.6585 101.589 39.0337C96.0355 51.4089 87.8962 62.6533 77.6353 72.1249C67.3744 81.5965 55.193 89.1097 41.7865 94.2357C28.38 99.3617 14.0111 102 -0.500008 102L-0.5 0H110Z" fill="#FCC870"/>
<path d="M0 361C7.74799 361 15.4201 362.526 22.5783 365.491C29.7365 368.456 36.2406 372.802 41.7193 378.281C47.198 383.759 51.5439 390.263 54.5089 397.422C57.4739 404.58 59 412.252 59 420L0 420L0 361Z" fill="#005690"/>
<ellipse cx="222" cy="319" rx="283" ry="160" fill="#FCC870"/>
<circle cx="374" cy="174" r="2" fill="#91610F"/>
<circle cx="382" cy="174" r="2" fill="#91610F"/>
<circle cx="390" cy="174" r="2" fill="#91610F"/>
<circle cx="398" cy="174" r="2" fill="#91610F"/>
<circle cx="406" cy="174" r="2" fill="#FCC870"/>
<circle cx="422" cy="174" r="2" fill="#FCC870"/>
<circle cx="414" cy="174" r="2" fill="#FCC870"/>
<circle cx="430" cy="174" r="2" fill="#FCC870"/>
<circle cx="374" cy="182" r="2" fill="#91610F"/>
<circle cx="382" cy="182" r="2" fill="#91610F"/>
<circle cx="390" cy="182" r="2" fill="#91610F"/>
<circle cx="398" cy="182" r="2" fill="#91610F"/>
<circle cx="406" cy="182" r="2" fill="#FCC870"/>
<circle cx="422" cy="182" r="2" fill="#FCC870"/>
<circle cx="414" cy="182" r="2" fill="#FCC870"/>
<circle cx="430" cy="182" r="2" fill="#FCC870"/>
<circle cx="374" cy="190" r="2" fill="#91610F"/>
<circle cx="382" cy="190" r="2" fill="#91610F"/>
<circle cx="390" cy="190" r="2" fill="#91610F"/>
<circle cx="398" cy="190" r="2" fill="#91610F"/>
<circle cx="406" cy="190" r="2" fill="#FCC870"/>
<circle cx="422" cy="190" r="2" fill="#FCC870"/>
<circle cx="414" cy="190" r="2" fill="#FCC870"/>
<circle cx="430" cy="190" r="2" fill="#FCC870"/>
<circle cx="374" cy="198" r="2" fill="#91610F"/>
<circle cx="382" cy="198" r="2" fill="#91610F"/>
<circle cx="390" cy="198" r="2" fill="#91610F"/>
<circle cx="398" cy="198" r="2" fill="#91610F"/>
<circle cx="406" cy="198" r="2" fill="#FCC870"/>
<circle cx="422" cy="198" r="2" fill="#FCC870"/>
<circle cx="414" cy="198" r="2" fill="#FCC870"/>
<circle cx="430" cy="198" r="2" fill="#FCC870"/>
<circle cx="374" cy="206" r="2" fill="#91610F"/>
<circle cx="382" cy="206" r="2" fill="#91610F"/>
<circle cx="390" cy="206" r="2" fill="#91610F"/>
<circle cx="398" cy="206" r="2" fill="#91610F"/>
<circle cx="406" cy="206" r="2" fill="#FCC870"/>
<circle cx="422" cy="206" r="2" fill="#FCC870"/>
<circle cx="414" cy="206" r="2" fill="#FCC870"/>
<circle cx="430" cy="206" r="2" fill="#FCC870"/>
<circle cx="374" cy="214" r="2" fill="#91610F"/>
<circle cx="382" cy="214" r="2" fill="#91610F"/>
<circle cx="390" cy="214" r="2" fill="#91610F"/>
<circle cx="398" cy="214" r="2" fill="#91610F"/>
<circle cx="406" cy="214" r="2" fill="#FCC870"/>
<circle cx="422" cy="214" r="2" fill="#FCC870"/>
<circle cx="414" cy="214" r="2" fill="#FCC870"/>
<circle cx="430" cy="214" r="2" fill="#FCC870"/>
<circle cx="10" cy="271" r="2" fill="#91610F"/>
<circle cx="18" cy="271" r="2" fill="#91610F"/>
<circle cx="26" cy="271" r="2" fill="#91610F"/>
<circle cx="34" cy="271" r="2" fill="#91610F"/>
<circle cx="42" cy="271" r="2" fill="#FCC870"/>
<circle cx="58" cy="271" r="2" fill="#FCC870"/>
<circle cx="50" cy="271" r="2" fill="#FCC870"/>
<circle cx="66" cy="271" r="2" fill="#FCC870"/>
<circle cx="10" cy="279" r="2" fill="#91610F"/>
<circle cx="18" cy="279" r="2" fill="#91610F"/>
<circle cx="26" cy="279" r="2" fill="#91610F"/>
<circle cx="34" cy="279" r="2" fill="#91610F"/>
<circle cx="42" cy="279" r="2" fill="#FCC870"/>
<circle cx="58" cy="279" r="2" fill="#FCC870"/>
<circle cx="50" cy="279" r="2" fill="#FCC870"/>
<circle cx="66" cy="279" r="2" fill="#FCC870"/>
<circle cx="10" cy="287" r="2" fill="#91610F"/>
<circle cx="18" cy="287" r="2" fill="#91610F"/>
<circle cx="26" cy="287" r="2" fill="#91610F"/>
<circle cx="34" cy="287" r="2" fill="#91610F"/>
<circle cx="42" cy="287" r="2" fill="#FCC870"/>
<circle cx="58" cy="287" r="2" fill="#FCC870"/>
<circle cx="50" cy="287" r="2" fill="#FCC870"/>
<circle cx="66" cy="287" r="2" fill="#FCC870"/>
<circle cx="10" cy="295" r="2" fill="#91610F"/>
<circle cx="18" cy="295" r="2" fill="#91610F"/>
<circle cx="26" cy="295" r="2" fill="#91610F"/>
<circle cx="34" cy="295" r="2" fill="#91610F"/>
<circle cx="42" cy="295" r="2" fill="#FCC870"/>
<circle cx="58" cy="295" r="2" fill="#FCC870"/>
<circle cx="50" cy="295" r="2" fill="#FCC870"/>
<circle cx="66" cy="295" r="2" fill="#FCC870"/>
<circle cx="10" cy="303" r="2" fill="#91610F"/>
<circle cx="18" cy="303" r="2" fill="#91610F"/>
<circle cx="26" cy="303" r="2" fill="#91610F"/>
<circle cx="34" cy="303" r="2" fill="#91610F"/>
<circle cx="42" cy="303" r="2" fill="#FCC870"/>
<circle cx="58" cy="303" r="2" fill="#FCC870"/>
<circle cx="50" cy="303" r="2" fill="#FCC870"/>
<circle cx="66" cy="303" r="2" fill="#FCC870"/>
<circle cx="10" cy="311" r="2" fill="#91610F"/>
<circle cx="18" cy="311" r="2" fill="#91610F"/>
<circle cx="26" cy="311" r="2" fill="#91610F"/>
<circle cx="34" cy="311" r="2" fill="#91610F"/>
<circle cx="42" cy="311" r="2" fill="#FCC870"/>
<circle cx="58" cy="311" r="2" fill="#FCC870"/>
<circle cx="50" cy="311" r="2" fill="#FCC870"/>
<circle cx="66" cy="311" r="2" fill="#FCC870"/>
</g>
<defs>
<clipPath id="clip0_1_2539">
<rect width="444" height="420" rx="8" fill="white"/>
</clipPath>
</defs>
</svg>
